<svg xmlns="http://www.w3.org/2000/svg" xml:space="preserve" viewBox="143.95 89.68 688.83 636.08">
  <path d="M241.928 564.977c-32.924 23.092-65.635 45.867-97.409 70.109-1.21-2.044-.132-2.85.625-3.644 19.753-20.728 30.636-46.08 38.418-73.12 3.59-12.474 4.53-25.2 4.467-38.045-.097-19.498-1.94-38.736-5.554-58.02-4.446-23.726-5.043-47.91-4.02-72.147 1.256-29.71 6.773-58.526 16.69-86.42 13.406-37.706 32.844-72.122 59.149-102.404 21.29-24.509 44.839-46.57 72.627-63.702 36.452-22.473 75.705-37.523 118.135-43.902 36.67-5.513 73.293-5.523 109.848 1.26 29.453 5.465 58.127 13.581 84.713 27.5 27.41 14.35 52.203 32.658 75.223 53.353 14.58 13.109 26.093 28.836 38.751 44.56-46.156 31.939-93.52 61.631-138.818 95.128-.835-3.24 1.086-4.209 2.195-5.441 6.436-7.148 10.747-15.405 11.557-24.97 1.125-13.296-3.902-24.216-14.942-31.83-26.888-18.542-55.676-32.127-88.54-36.994-45.158-6.687-87.326 1.123-126.39 24.104-50.778 29.874-80.198 75.107-92.454 132.235-6.984 32.553-3.48 64.166 7.144 95.343 4.088 11.996 8.69 23.78 14.215 35.176 1.602 3.303-.119 4.591-2.385 5.933-19.38 11.47-37.392 24.986-56.09 37.476-9.002 6.013-17.914 12.16-27.155 18.462zM685.727 447.752c1.978-6.685 2.566-13.228 2.754-19.66.53-18.135 1.685-36.398-1.796-54.334-4.138-21.322-10.443-42.019-22.025-60.68-1.755-2.829-.374-3.707 1.537-5.072 25.22-18.017 51.419-34.594 76.883-52.238 27.274-18.899 56.57-34.578 83.808-53.504 1.652-1.147 3.342-2.756 5.582-2.447.577.977.266 1.592-.261 1.987-15.289 11.469-21.565 28.168-26.91 45.574-8.576 27.936-7.236 55.862-.573 83.826 7.31 30.676 9.59 61.88 8.28 93.201-2.822 67.51-25.426 128.106-67.916 180.573-41.976 51.832-95.155 87.87-159.285 107.114-36.552 10.968-74.032 15.834-112.034 12.764-62.842-5.075-119.977-25.926-170.533-64.303-23.716-18.002-43.237-39.962-62.526-62.282-1.839-2.128-1.722-3.37.403-5.294 6.861-6.214 15.124-10.312 22.716-15.402 39.989-26.807 80.124-53.396 120.138-80.166 4.245-2.84 8.028-6.368 12.56-10.006.4 3.287-1.714 4.674-3 6.291-8.471 10.644-15.494 21.938-18.732 35.436-3.321 13.847.082 25.26 10.548 34.791 14.733 13.418 32.356 21.502 50.98 27.694 15.304 5.09 31.104 6.965 47.202 7.187 21.506.298 43.055.946 64.048-4.75 29.32-7.954 54.888-22.997 77.635-42.872 31.569-27.584 50.604-62.628 60.517-103.428z"/>
</svg>